<svg width="21" height="23" viewBox="0 0 21 23" fill="none" xmlns="http://www.w3.org/2000/svg">
<path d="M14.0002 21.5V17.5C14.1393 16.2473 13.7801 14.9901 13.0002 14C16.0002 14 19.0002 12 19.0002 8.5C19.0802 7.25 18.7302 6.02 18.0002 5C18.2802 3.85 18.2802 2.65 18.0002 1.5C18.0002 1.5 17.0002 1.5 15.0002 3C12.3602 2.5 9.64016 2.5 7.00016 3C5.00016 1.5 4.00016 1.5 4.00016 1.5C3.70016 2.65 3.70016 3.85 4.00016 5C3.27203 6.01588 2.91863 7.25279 3.00016 8.5C3.00016 12 6.00016 14 9.00016 14C8.61016 14.49 8.32016 15.05 8.15016 15.65C7.98016 16.25 7.93016 16.88 8.00016 17.5V21.5" stroke="#6B6B6B" stroke-width="2" stroke-linecap="round" stroke-linejoin="round"/>
<path d="M8.00012 17.5C3.49012 19.5 3.00012 15.5 1.00012 15.5" stroke="#6B6B6B" stroke-width="2" stroke-linecap="round" stroke-linejoin="round"/>
</svg>
