<svg width="22" height="23" viewBox="0 0 22 23" fill="none" xmlns="http://www.w3.org/2000/svg">
<path d="M16 1.5H6C3.23858 1.5 1 3.73858 1 6.5V16.5C1 19.2614 3.23858 21.5 6 21.5H16C18.7614 21.5 21 19.2614 21 16.5V6.5C21 3.73858 18.7614 1.5 16 1.5Z" stroke="#6B6B6B" stroke-width="2" stroke-linecap="round" stroke-linejoin="round"/>
<path d="M16.5 6H16.51M15 10.87C15.1234 11.7022 14.9812 12.5522 14.5937 13.299C14.2062 14.0458 13.5931 14.6514 12.8416 15.0297C12.0901 15.4079 11.2384 15.5396 10.4077 15.4059C9.57708 15.2723 8.80971 14.8801 8.21479 14.2852C7.61987 13.6902 7.22768 12.9229 7.09402 12.0922C6.96035 11.2616 7.09202 10.4099 7.47028 9.65837C7.84854 8.90685 8.45414 8.29374 9.20094 7.90624C9.94773 7.51874 10.7977 7.37659 11.63 7.5C12.4789 7.62588 13.2648 8.02146 13.8716 8.62831C14.4785 9.23515 14.8741 10.0211 15 10.87Z" stroke="#6B6B6B" stroke-width="2" stroke-linecap="round" stroke-linejoin="round"/>
</svg>
