<svg width="22" height="22" viewBox="0 0 22 22" fill="none" xmlns="http://www.w3.org/2000/svg">
<path d="M15 7.5C16.5913 7.5 18.1174 8.13214 19.2426 9.25736C20.3679 10.3826 21 11.9087 21 13.5V20.5H17V13.5C17 12.9696 16.7893 12.4609 16.4142 12.0858C16.0391 11.7107 15.5304 11.5 15 11.5C14.4696 11.5 13.9609 11.7107 13.5858 12.0858C13.2107 12.4609 13 12.9696 13 13.5V20.5H9V13.5C9 11.9087 9.63214 10.3826 10.7574 9.25736C11.8826 8.13214 13.4087 7.5 15 7.5V7.5ZM1 8.5H5V20.5H1V8.5Z" stroke="#6B6B6B" stroke-width="2" stroke-linecap="round" stroke-linejoin="round"/>
<path d="M3 5.5C4.10457 5.5 5 4.60457 5 3.5C5 2.39543 4.10457 1.5 3 1.5C1.89543 1.5 1 2.39543 1 3.5C1 4.60457 1.89543 5.5 3 5.5Z" stroke="#6B6B6B" stroke-width="2" stroke-linecap="round" stroke-linejoin="round"/>
</svg>
